<mxfile host="app.diagrams.net" agent="Mozilla/5.0 (Windows NT 10.0; Win64; x64; rv:133.0) Gecko/20100101 Firefox/133.0" version="25.0.3">
  <diagram name="Page-1" id="UacGbrpcJHsGW4lxGQTE">
    <mxGraphModel dx="1195" dy="650" grid="1" gridSize="10" guides="1" tooltips="1" connect="1" arrows="1" fold="1" page="1" pageScale="1" pageWidth="850" pageHeight="1100" math="0" shadow="0">
      <root>
        <mxCell id="0" />
        <mxCell id="1" parent="0" />
        <mxCell id="1Y44kEw8fV0p1HAC0Q82-3" style="edgeStyle=orthogonalEdgeStyle;rounded=0;orthogonalLoop=1;jettySize=auto;html=1;exitX=0.5;exitY=0;exitDx=0;exitDy=0;entryX=0;entryY=0.5;entryDx=0;entryDy=0;" edge="1" parent="1" source="1Y44kEw8fV0p1HAC0Q82-1" target="1Y44kEw8fV0p1HAC0Q82-2">
          <mxGeometry relative="1" as="geometry" />
        </mxCell>
        <mxCell id="1Y44kEw8fV0p1HAC0Q82-16" style="edgeStyle=orthogonalEdgeStyle;rounded=0;orthogonalLoop=1;jettySize=auto;html=1;exitX=0.5;exitY=1;exitDx=0;exitDy=0;entryX=0;entryY=0.75;entryDx=0;entryDy=0;" edge="1" parent="1" source="1Y44kEw8fV0p1HAC0Q82-1" target="1Y44kEw8fV0p1HAC0Q82-15">
          <mxGeometry relative="1" as="geometry" />
        </mxCell>
        <mxCell id="1Y44kEw8fV0p1HAC0Q82-1" value="&lt;font style=&quot;font-size: 17px;&quot; face=&quot;Times New Roman&quot;&gt;User&lt;/font&gt;" style="rounded=1;whiteSpace=wrap;html=1;" vertex="1" parent="1">
          <mxGeometry x="90" y="345" width="50" height="20" as="geometry" />
        </mxCell>
        <mxCell id="1Y44kEw8fV0p1HAC0Q82-6" style="edgeStyle=orthogonalEdgeStyle;rounded=0;orthogonalLoop=1;jettySize=auto;html=1;exitX=0.5;exitY=0;exitDx=0;exitDy=0;entryX=0;entryY=0.5;entryDx=0;entryDy=0;" edge="1" parent="1" source="1Y44kEw8fV0p1HAC0Q82-2" target="1Y44kEw8fV0p1HAC0Q82-4">
          <mxGeometry relative="1" as="geometry" />
        </mxCell>
        <mxCell id="1Y44kEw8fV0p1HAC0Q82-12" style="edgeStyle=orthogonalEdgeStyle;rounded=0;orthogonalLoop=1;jettySize=auto;html=1;exitX=1;exitY=0.5;exitDx=0;exitDy=0;endArrow=none;endFill=0;" edge="1" parent="1" source="1Y44kEw8fV0p1HAC0Q82-2">
          <mxGeometry relative="1" as="geometry">
            <mxPoint x="560" y="250" as="targetPoint" />
          </mxGeometry>
        </mxCell>
        <mxCell id="1Y44kEw8fV0p1HAC0Q82-2" value="&lt;font style=&quot;font-size: 19px;&quot; face=&quot;Times New Roman&quot;&gt;Speech to Text Model&lt;br&gt;&lt;/font&gt;" style="rounded=1;whiteSpace=wrap;html=1;" vertex="1" parent="1">
          <mxGeometry x="220" y="220" width="120" height="60" as="geometry" />
        </mxCell>
        <mxCell id="1Y44kEw8fV0p1HAC0Q82-8" style="edgeStyle=orthogonalEdgeStyle;rounded=0;orthogonalLoop=1;jettySize=auto;html=1;exitX=1;exitY=0.5;exitDx=0;exitDy=0;" edge="1" parent="1" source="1Y44kEw8fV0p1HAC0Q82-4">
          <mxGeometry relative="1" as="geometry">
            <mxPoint x="510" y="140" as="targetPoint" />
          </mxGeometry>
        </mxCell>
        <mxCell id="1Y44kEw8fV0p1HAC0Q82-4" value="&lt;font style=&quot;font-size: 18px;&quot; face=&quot;Times New Roman&quot;&gt;Sentiment Analysis&lt;br&gt;&lt;/font&gt;" style="rounded=1;whiteSpace=wrap;html=1;" vertex="1" parent="1">
          <mxGeometry x="350" y="110" width="120" height="60" as="geometry" />
        </mxCell>
        <mxCell id="1Y44kEw8fV0p1HAC0Q82-13" style="edgeStyle=orthogonalEdgeStyle;rounded=0;orthogonalLoop=1;jettySize=auto;html=1;exitX=0.5;exitY=1;exitDx=0;exitDy=0;entryX=0.5;entryY=0;entryDx=0;entryDy=0;" edge="1" parent="1" source="1Y44kEw8fV0p1HAC0Q82-9" target="1Y44kEw8fV0p1HAC0Q82-10">
          <mxGeometry relative="1" as="geometry" />
        </mxCell>
        <mxCell id="1Y44kEw8fV0p1HAC0Q82-9" value="&lt;font style=&quot;font-size: 18px;&quot; face=&quot;Times New Roman&quot;&gt;Emotion config&lt;/font&gt;" style="rhombus;whiteSpace=wrap;html=1;" vertex="1" parent="1">
          <mxGeometry x="510" y="90" width="100" height="100" as="geometry" />
        </mxCell>
        <mxCell id="1Y44kEw8fV0p1HAC0Q82-26" style="edgeStyle=orthogonalEdgeStyle;rounded=0;orthogonalLoop=1;jettySize=auto;html=1;exitX=1;exitY=0.5;exitDx=0;exitDy=0;" edge="1" parent="1" source="1Y44kEw8fV0p1HAC0Q82-10" target="1Y44kEw8fV0p1HAC0Q82-14">
          <mxGeometry relative="1" as="geometry" />
        </mxCell>
        <mxCell id="1Y44kEw8fV0p1HAC0Q82-10" value="&lt;font style=&quot;font-size: 18px;&quot; face=&quot;Times New Roman&quot;&gt;Large Language Model&lt;br&gt;&lt;/font&gt;" style="rounded=1;whiteSpace=wrap;html=1;" vertex="1" parent="1">
          <mxGeometry x="500" y="350" width="120" height="60" as="geometry" />
        </mxCell>
        <mxCell id="1Y44kEw8fV0p1HAC0Q82-36" style="edgeStyle=orthogonalEdgeStyle;rounded=0;orthogonalLoop=1;jettySize=auto;html=1;exitX=0.5;exitY=1;exitDx=0;exitDy=0;entryX=0.5;entryY=1;entryDx=0;entryDy=0;" edge="1" parent="1" source="1Y44kEw8fV0p1HAC0Q82-14" target="1Y44kEw8fV0p1HAC0Q82-19">
          <mxGeometry relative="1" as="geometry">
            <Array as="points">
              <mxPoint x="715" y="560" />
              <mxPoint x="390" y="560" />
            </Array>
          </mxGeometry>
        </mxCell>
        <mxCell id="1Y44kEw8fV0p1HAC0Q82-14" value="&lt;font style=&quot;font-size: 17px;&quot; face=&quot;Times New Roman&quot;&gt;Output&lt;/font&gt;" style="rounded=1;whiteSpace=wrap;html=1;" vertex="1" parent="1">
          <mxGeometry x="680" y="365" width="70" height="30" as="geometry" />
        </mxCell>
        <mxCell id="1Y44kEw8fV0p1HAC0Q82-31" style="edgeStyle=orthogonalEdgeStyle;rounded=0;orthogonalLoop=1;jettySize=auto;html=1;exitX=1;exitY=0.5;exitDx=0;exitDy=0;" edge="1" parent="1" source="1Y44kEw8fV0p1HAC0Q82-15" target="1Y44kEw8fV0p1HAC0Q82-23">
          <mxGeometry relative="1" as="geometry" />
        </mxCell>
        <mxCell id="1Y44kEw8fV0p1HAC0Q82-15" value="&lt;font style=&quot;font-size: 18px;&quot; face=&quot;Times New Roman&quot;&gt;Vision model&lt;/font&gt;" style="rounded=1;whiteSpace=wrap;html=1;" vertex="1" parent="1">
          <mxGeometry x="200" y="490" width="120" height="60" as="geometry" />
        </mxCell>
        <mxCell id="1Y44kEw8fV0p1HAC0Q82-35" style="edgeStyle=orthogonalEdgeStyle;rounded=0;orthogonalLoop=1;jettySize=auto;html=1;exitX=1;exitY=0.5;exitDx=0;exitDy=0;entryX=0;entryY=0.5;entryDx=0;entryDy=0;" edge="1" parent="1" source="1Y44kEw8fV0p1HAC0Q82-19" target="1Y44kEw8fV0p1HAC0Q82-10">
          <mxGeometry relative="1" as="geometry" />
        </mxCell>
        <mxCell id="1Y44kEw8fV0p1HAC0Q82-19" value="&lt;div&gt;&lt;font face=&quot;Times New Roman&quot;&gt;Memory&lt;/font&gt;&lt;/div&gt;&lt;div&gt;&lt;font face=&quot;Times New Roman&quot;&gt;&amp;nbsp;Vector&amp;nbsp;&lt;/font&gt;&lt;/div&gt;&lt;div&gt;&lt;font face=&quot;Times New Roman&quot;&gt;Store&lt;/font&gt;&lt;/div&gt;" style="rhombus;whiteSpace=wrap;html=1;fontSize=20;" vertex="1" parent="1">
          <mxGeometry x="320" y="310" width="140" height="140" as="geometry" />
        </mxCell>
        <mxCell id="1Y44kEw8fV0p1HAC0Q82-17" value="&lt;font style=&quot;font-size: 16px;&quot; face=&quot;Times New Roman&quot;&gt;Hash function&lt;/font&gt;" style="rounded=1;whiteSpace=wrap;html=1;" vertex="1" parent="1">
          <mxGeometry x="230" y="400" width="70" height="40" as="geometry" />
        </mxCell>
        <mxCell id="1Y44kEw8fV0p1HAC0Q82-21" style="edgeStyle=orthogonalEdgeStyle;rounded=0;orthogonalLoop=1;jettySize=auto;html=1;exitX=0.5;exitY=0;exitDx=0;exitDy=0;entryX=0;entryY=0.5;entryDx=0;entryDy=0;" edge="1" parent="1" source="1Y44kEw8fV0p1HAC0Q82-17" target="1Y44kEw8fV0p1HAC0Q82-19">
          <mxGeometry relative="1" as="geometry" />
        </mxCell>
        <mxCell id="1Y44kEw8fV0p1HAC0Q82-25" style="edgeStyle=orthogonalEdgeStyle;rounded=0;orthogonalLoop=1;jettySize=auto;html=1;exitX=0.5;exitY=0;exitDx=0;exitDy=0;entryX=0.5;entryY=1;entryDx=0;entryDy=0;" edge="1" parent="1" source="1Y44kEw8fV0p1HAC0Q82-23" target="1Y44kEw8fV0p1HAC0Q82-10">
          <mxGeometry relative="1" as="geometry" />
        </mxCell>
        <mxCell id="1Y44kEw8fV0p1HAC0Q82-23" value="&lt;font face=&quot;Times New Roman&quot;&gt;Object Detection Model&lt;br&gt;&lt;/font&gt;" style="rounded=1;whiteSpace=wrap;html=1;fontSize=18;" vertex="1" parent="1">
          <mxGeometry x="500" y="490" width="120" height="60" as="geometry" />
        </mxCell>
        <mxCell id="1Y44kEw8fV0p1HAC0Q82-29" value="" style="endArrow=none;html=1;rounded=0;" edge="1" parent="1">
          <mxGeometry width="50" height="50" relative="1" as="geometry">
            <mxPoint x="710" y="560" as="sourcePoint" />
            <mxPoint x="560" y="280" as="targetPoint" />
            <Array as="points">
              <mxPoint x="760" y="560" />
              <mxPoint x="760" y="280" />
            </Array>
          </mxGeometry>
        </mxCell>
        <mxCell id="1Y44kEw8fV0p1HAC0Q82-34" style="edgeStyle=orthogonalEdgeStyle;rounded=0;orthogonalLoop=1;jettySize=auto;html=1;exitX=0.5;exitY=0;exitDx=0;exitDy=0;entryX=0.428;entryY=1.008;entryDx=0;entryDy=0;entryPerimeter=0;" edge="1" parent="1" source="1Y44kEw8fV0p1HAC0Q82-15" target="1Y44kEw8fV0p1HAC0Q82-17">
          <mxGeometry relative="1" as="geometry" />
        </mxCell>
      </root>
    </mxGraphModel>
  </diagram>
</mxfile>
